<svg width="90" height="60" viewBox="0 0 90 60" fill="none" xmlns="http://www.w3.org/2000/svg">
    <g clip-path="url(#clip0)">
        <path d="M0 27L3 22.5L7.5 21.75L19.5 31.5L24 46.5L27 40.5H31.5L34.5 33H39L46.5 27L51.75 30L55.5 31.5L58.5 36.75L63.75 29.25L66.75 27L70.5 15.75L74.25 18.75L77.25 24.75L85.5 17.25H90V46.5H24H0V27Z" fill="url(#paint0_linear)" fill-opacity="0.8"/>
        <path d="M0 26.9409L3.5405 22.6069L8.20032 21.6719L19.4809 31.2225L23.7281 46.5L27.099 40.6441H31.4908L34.597 33.1032H38.7539L46.6438 26.9409L51.8037 30.0946L55.2969 31.2225L58.4049 36.7303L63.7171 28.7671L66.8354 26.9409L70.412 15L74.5979 18.8828L77.5471 24.7567L85.9713 17.2716H90" stroke="#9966FF" stroke-width="1.5"/>
    </g>
    <defs>
        <linearGradient id="paint0_linear" x1="45" y1="15.75" x2="45" y2="46.5" gradientUnits="userSpaceOnUse">
            <stop stop-color="#9966FF" stop-opacity="0.24"/>
            <stop offset="0.753118" stop-color="#9966FF" stop-opacity="0"/>
        </linearGradient>
        <clipPath id="clip0">
            <rect width="90" height="60" fill="white"/>
        </clipPath>
    </defs>
</svg>
