<svg width="320" height="320" viewBox="0 0 320 320" fill="none" xmlns="http://www.w3.org/2000/svg">
    <path d="M165.281 295.809C234.941 295.809 291.411 239.338 291.411 169.679C291.411 100.019 234.941 43.5488 165.281 43.5488C95.6215 43.5488 39.1511 100.019 39.1511 169.679C39.1511 239.338 95.6215 295.809 165.281 295.809Z" fill="#A7D2FE"/>
    <path d="M92.0955 238.582L102.921 300.115C103.102 302.4 104.417 304.445 106.424 305.557L106.608 305.627L106.823 305.706L114.089 308.464C112.345 307.703 111.017 305.821 110.542 303.015L99.7161 241.483C98.9585 234.842 101.415 228.239 106.332 223.709L167.078 173.043C169.411 171.119 171.728 170.571 173.589 171.252L166.108 168.415C164.222 167.664 161.854 168.18 159.457 170.158L98.7144 220.821C93.7946 225.341 91.3347 231.944 92.0955 238.582Z" fill="#BC437D"/>
    <path d="M92.1079 238.578L98.8853 276.688L102.255 295.746L102.677 298.129L102.886 299.321L102.99 299.917L103.016 300.066C103.028 300.136 103.028 300.171 103.035 300.225L103.067 300.52C103.288 302.095 104.09 303.579 105.286 304.625C105.58 304.891 105.904 305.126 106.243 305.328C106.322 305.373 106.424 305.443 106.487 305.471L106.769 305.576L107.336 305.788L109.6 306.647L114.123 308.365L114.044 308.559C112.928 308.067 112.047 307.151 111.473 306.102C110.884 305.053 110.564 303.877 110.383 302.704L109.156 295.704C106.528 280.666 103.9 265.615 101.275 250.577L100.286 244.934L99.7919 242.113C99.7539 241.878 99.7032 241.644 99.6747 241.406L99.6144 240.69C99.5605 240.214 99.5669 239.735 99.551 239.257C99.5257 237.345 99.7888 235.431 100.29 233.586C100.797 231.744 101.535 229.959 102.524 228.32C103.51 226.681 104.718 225.176 106.103 223.857C106.268 223.683 106.455 223.534 106.639 223.382L107.187 222.922L108.287 222.003L110.484 220.167L119.275 212.819L145.845 190.607L159.137 179.506L165.784 173.955C166.345 173.496 166.878 173.023 167.461 172.576C168.045 172.139 168.669 171.752 169.338 171.451C170.007 171.156 170.717 170.928 171.452 170.861C172.185 170.785 172.939 170.868 173.64 171.118L173.554 171.35L166.891 168.823L166.057 168.509C165.784 168.411 165.509 168.322 165.223 168.275C164.656 168.17 164.066 168.176 163.496 168.268C162.345 168.455 161.27 168.991 160.31 169.657C159.825 169.987 159.381 170.376 158.921 170.757L157.555 171.898L154.819 174.18L149.348 178.742L127.453 196.979L105.545 215.203L100.068 219.758C99.6144 220.139 99.1516 220.513 98.7015 220.899C98.2799 221.315 97.8424 221.714 97.4557 222.161C97.0436 222.589 96.6822 223.058 96.3081 223.518C96.1275 223.752 95.9594 223.996 95.7851 224.237L95.5283 224.599L95.2906 224.976C92.7102 228.977 91.569 233.858 92.1079 238.578L92.0857 238.582C91.5247 233.858 92.6468 228.954 95.2113 224.944L95.4491 224.567L95.7059 224.203C95.8802 223.962 96.0482 223.714 96.2257 223.477C96.5998 223.014 96.9612 222.541 97.3733 222.11C97.7632 221.66 98.2006 221.254 98.6254 220.836C99.0724 220.446 99.5352 220.072 99.9885 219.689L105.45 215.114L127.31 196.833L149.183 178.568L154.655 174.003L157.39 171.72L158.757 170.579C159.213 170.202 159.663 169.806 160.161 169.467C161.144 168.785 162.25 168.234 163.451 168.037C164.05 167.939 164.665 167.936 165.265 168.043C165.566 168.094 165.857 168.186 166.143 168.291L166.976 168.608L173.636 171.137L173.551 171.369C172.219 170.874 170.72 171.102 169.436 171.689C168.786 171.98 168.178 172.354 167.607 172.786C167.043 173.217 166.494 173.699 165.94 174.155L159.289 179.696L145.985 190.778L119.367 212.927L110.56 220.253L108.36 222.085L107.26 223.001L106.709 223.458C106.525 223.61 106.338 223.759 106.173 223.93C104.791 225.239 103.586 226.735 102.604 228.368C101.615 229.997 100.876 231.776 100.372 233.611C99.8712 235.45 99.6081 237.355 99.6334 239.26C99.6493 239.735 99.643 240.214 99.6968 240.686L99.7571 241.396C99.7856 241.634 99.8363 241.866 99.8744 242.103L100.372 244.925L101.367 250.567C104.03 265.599 106.696 280.641 109.362 295.673L110.595 302.672C110.776 303.835 111.093 304.983 111.663 306.004C112.225 307.024 113.074 307.902 114.139 308.368L114.06 308.562L109.536 306.844L107.276 305.985L106.712 305.772L106.43 305.668C106.309 305.614 106.246 305.563 106.151 305.509C105.802 305.297 105.469 305.056 105.165 304.783C103.932 303.702 103.108 302.174 102.879 300.551L102.845 300.247C102.838 300.199 102.835 300.136 102.826 300.104L102.8 299.955L102.696 299.359L102.486 298.168L102.068 295.784L98.73 276.719L92.0953 238.585L92.1079 238.578Z" fill="black"/>
    <path d="M113.992 308.394C115.894 309.227 118.322 308.733 120.769 306.717L181.515 256.051C186.435 251.524 188.895 244.918 188.131 238.277L177.306 176.745C176.795 173.8 175.407 171.91 173.571 171.21C171.711 170.528 169.39 171.077 167.06 173.001L106.314 223.667C101.398 228.196 98.9408 234.799 99.6984 241.441L110.524 302.973C111.015 305.807 112.09 307.56 113.992 308.394Z" fill="#FCBFCF"/>
    <path d="M113.994 308.385C114.834 308.746 115.772 308.842 116.669 308.702C117.57 308.563 118.432 308.22 119.218 307.764C120.017 307.317 120.714 306.73 121.412 306.138L123.51 304.378L131.911 297.341L148.721 283.282L165.544 269.236L173.96 262.218L178.17 258.708L180.275 256.955L181.327 256.077C181.67 255.776 181.98 255.45 182.31 255.136C184.84 252.524 186.662 249.24 187.556 245.715C188.006 243.952 188.206 242.126 188.178 240.31C188.187 238.487 187.756 236.696 187.464 234.896C186.206 227.7 184.947 220.504 183.692 213.311C182.427 206.115 181.159 198.92 179.894 191.724L177.986 180.933L177.507 178.236L177.27 176.885L177.14 176.216C177.083 175.998 177.038 175.772 176.969 175.557C176.718 174.685 176.354 173.842 175.827 173.103C175.308 172.365 174.607 171.747 173.786 171.379C172.965 171.008 172.03 170.929 171.142 171.071C170.248 171.208 169.396 171.556 168.613 172.01C167.82 172.457 167.123 173.04 166.425 173.633L164.324 175.389L155.917 182.417L139.1 196.466L122.277 210.509L113.864 217.527L109.657 221.036L107.553 222.789L106.5 223.668C106.158 223.969 105.847 224.295 105.521 224.609C102.997 227.224 101.184 230.505 100.296 234.027C99.8495 235.786 99.653 237.609 99.6815 239.422C99.672 241.239 100.106 243.03 100.398 244.83L104.173 266.418L107.936 288.008L109.813 298.805L110.282 301.503C110.45 302.4 110.564 303.31 110.802 304.188C111.036 305.066 111.372 305.928 111.899 306.673C112.431 307.418 113.16 308.017 113.994 308.385L113.984 308.407C113.144 308.043 112.409 307.444 111.88 306.695C111.347 305.947 111.005 305.082 110.764 304.201C110.52 303.316 110.402 302.41 110.231 301.513L109.749 298.815L107.828 288.027L103.996 266.446L100.176 244.865C99.8812 243.065 99.4437 241.28 99.4501 239.429C99.4184 237.593 99.6149 235.751 100.065 233.97C100.959 230.407 102.794 227.085 105.346 224.438C105.679 224.121 105.996 223.785 106.342 223.481L107.394 222.602L109.499 220.846L113.705 217.337L122.122 210.319L138.961 196.289L155.803 182.268L164.225 175.259L166.33 173.506C167.024 172.919 167.738 172.324 168.54 171.877C169.335 171.417 170.204 171.065 171.12 170.929C172.03 170.786 172.99 170.869 173.84 171.255C174.686 171.639 175.403 172.273 175.929 173.027C176.461 173.782 176.829 174.638 177.08 175.522C177.149 175.741 177.194 175.966 177.251 176.188L177.381 176.863L177.615 178.213L178.088 180.911L179.977 191.705C181.242 198.901 182.51 206.096 183.774 213.292C185.049 220.485 186.323 227.678 187.594 234.87C187.892 236.671 188.33 238.455 188.327 240.3C188.361 242.133 188.165 243.971 187.718 245.75C186.827 249.306 184.998 252.625 182.449 255.269C182.117 255.586 181.8 255.922 181.457 256.223L180.405 257.101L178.303 258.857L174.097 262.37L165.68 269.388L148.841 283.418L131.99 297.433L123.561 304.435L121.453 306.185C120.755 306.772 120.045 307.361 119.243 307.805C118.451 308.261 117.582 308.601 116.676 308.737C115.769 308.873 114.824 308.772 113.984 308.404L113.994 308.385Z" fill="black"/>
    <g opacity="0.7">
        <g opacity="0.7">
            <path opacity="0.7" d="M132.498 248.309L133.151 252.097L128.184 256.196L127.543 252.407L132.498 248.309Z" fill="white"/>
            <g opacity="0.7">
                <g opacity="0.7">
                    <path opacity="0.7" d="M132.509 248.305C132.648 248.933 132.778 249.557 132.902 250.188L133.083 251.133L133.263 252.138L132.214 252.997C131.545 253.529 130.857 254.046 130.195 254.588C129.862 254.858 129.532 255.13 129.203 255.406L128.144 256.313L128.138 256.319L127.76 254.319L127.408 252.356L128.702 251.285L129.951 250.274C130.788 249.605 131.634 248.946 132.487 248.299L132.503 248.318C131.707 249.037 130.902 249.744 130.087 250.439L128.86 251.475L127.678 252.455L127.966 254.284L128.109 255.235L128.179 255.71L128.214 255.948L128.229 256.075H128.233C128.274 256.046 128.496 255.869 128.651 255.745L129.152 255.343C129.485 255.073 129.818 254.804 130.144 254.525C130.803 253.976 131.437 253.403 132.09 252.845L133.041 252.055L132.896 251.168L132.75 250.217C132.655 249.583 132.569 248.949 132.49 248.312L132.509 248.305Z" fill="black"/>
                </g>
            </g>
        </g>
        <g opacity="0.7">
            <path opacity="0.7" d="M117.851 234.742L118.504 238.53L110.991 244.734L110.351 240.943L117.851 234.742Z" fill="white"/>
            <g opacity="0.7">
                <g opacity="0.7">
                    <path opacity="0.7" d="M117.864 234.738L118.244 236.621L118.609 238.564L117.433 239.544L116.291 240.479C115.41 241.189 114.513 241.88 113.638 242.596C113.198 242.951 112.763 243.313 112.329 243.677L110.95 244.847L110.944 244.853L110.224 240.894L112.145 239.293L114.028 237.753C115.29 236.732 116.558 235.724 117.842 234.729L117.857 234.748C116.64 235.822 115.41 236.881 114.171 237.927L112.304 239.487L110.475 240.986L110.763 242.818L111.032 244.606H111.036L112.275 243.614C112.716 243.259 113.153 242.898 113.584 242.533C114.456 241.81 115.302 241.059 116.165 240.327L117.296 239.385L118.393 238.488L118.105 236.643L117.832 234.741L117.864 234.738Z" fill="black"/>
                </g>
            </g>
        </g>
        <g opacity="0.7">
            <path opacity="0.7" d="M116.89 229.127L117.54 232.902L110.027 239.106L109.39 235.331L116.89 229.127Z" fill="white"/>
            <g opacity="0.7">
                <g opacity="0.7">
                    <path opacity="0.7" d="M116.9 229.127L117.28 231.003L117.645 232.94L116.465 233.923L115.324 234.858C114.443 235.565 113.546 236.256 112.671 236.972C112.23 237.327 111.796 237.689 111.362 238.053L109.986 239.22L109.98 239.226L109.263 235.283L111.184 233.682L113.067 232.141C114.329 231.121 115.597 230.113 116.881 229.117L116.896 229.136C115.679 230.211 114.452 231.27 113.21 232.316L111.343 233.875L109.514 235.375L109.799 237.201L110.068 238.982L110.072 238.979L111.311 237.987C111.752 237.632 112.186 237.27 112.62 236.906C113.489 236.183 114.338 235.432 115.201 234.703L116.335 233.758L117.435 232.858L117.15 231.022L116.877 229.127H116.9Z" fill="black"/>
                </g>
            </g>
        </g>
        <g opacity="0.7">
            <path opacity="0.7" d="M171.15 190.686L171.803 194.461L167.229 198.233L166.576 194.461L171.15 190.686Z" fill="white"/>
            <g opacity="0.7">
                <g opacity="0.7">
                    <path opacity="0.7" d="M171.163 190.685C171.303 191.31 171.433 191.934 171.556 192.559L171.737 193.5L171.914 194.502L171.052 195.206C170.415 195.713 169.762 196.198 169.134 196.715C168.817 196.968 168.504 197.228 168.193 197.491L167.182 198.357L166.798 196.366L166.44 194.41L167.641 193.421L168.795 192.492C169.569 191.877 170.352 191.272 171.141 190.676L171.157 190.695C170.421 191.357 169.68 192.01 168.928 192.654L167.797 193.611L166.709 194.511L167.004 196.331L167.15 197.279L167.22 197.751L167.255 197.989L167.27 198.116C167.312 198.087 167.508 197.932 167.664 197.808L168.139 197.428C168.456 197.174 168.77 196.914 169.08 196.651C169.705 196.131 170.307 195.583 170.925 195.054L171.686 194.42L171.54 193.535L171.395 192.587C171.299 191.956 171.214 191.322 171.138 190.688L171.163 190.685Z" fill="black"/>
                </g>
            </g>
        </g>
        <g opacity="0.7">
            <path opacity="0.7" d="M175.003 213.164L175.653 216.936L171.079 220.728L170.442 216.936L175.003 213.164Z" fill="white"/>
            <g opacity="0.7">
                <g opacity="0.7">
                    <path opacity="0.7" d="M175.012 213.161C175.152 213.786 175.282 214.41 175.405 215.035L175.586 215.976L175.763 216.978L174.901 217.685C174.264 218.192 173.614 218.68 172.986 219.197C172.669 219.451 172.356 219.714 172.048 219.977L171.037 220.845L171.034 220.849L170.657 218.848L170.305 216.886L171.503 215.9L172.654 214.971C173.424 214.356 174.204 213.751 174.993 213.158L175.009 213.177C174.277 213.84 173.535 214.493 172.787 215.136L171.658 216.094L170.574 216.991L170.863 218.817L171.005 219.768L171.075 220.243L171.11 220.481L171.126 220.608C171.167 220.579 171.367 220.421 171.519 220.3L171.994 219.92C172.311 219.663 172.625 219.406 172.936 219.14C173.56 218.617 174.163 218.069 174.777 217.539L175.538 216.902L175.392 216.018L175.247 215.07C175.152 214.439 175.066 213.805 174.99 213.171L175.012 213.161Z" fill="black"/>
                </g>
            </g>
        </g>
        <g opacity="0.7">
            <path opacity="0.7" d="M172.064 246.17L172.701 249.945L142.466 274.982L141.829 271.203L172.064 246.17Z" fill="white"/>
            <g opacity="0.7">
                <g opacity="0.7">
                    <path opacity="0.7" d="M172.076 246.166L172.755 249.963L165.942 255.666L159.12 261.315C156.344 263.588 153.563 265.864 150.79 268.14L146.64 271.576L142.421 275.098L141.736 271.167L149.309 264.85L156.867 258.589C161.913 254.424 166.972 250.277 172.057 246.156L172.073 246.175C167.077 250.401 162.059 254.598 157.025 258.779L149.465 265.037L141.923 271.237L142.513 274.857L146.59 271.513L150.739 268.077C153.491 265.772 156.245 263.467 158.997 261.163L165.819 255.514L172.65 249.922L172.054 246.169L172.076 246.166Z" fill="black"/>
                </g>
            </g>
        </g>
        <g opacity="0.7">
            <path opacity="0.7" d="M171.096 240.6L171.746 244.375L144.047 267.322L143.394 263.547L171.096 240.6Z" fill="white"/>
            <g opacity="0.7">
                <g opacity="0.7">
                    <path opacity="0.7" d="M171.109 240.6L171.803 244.398L165.622 249.581L159.434 254.706C156.869 256.808 154.302 258.91 151.734 261.008L147.902 264.182L143.999 267.443L143.299 263.516L150.241 257.721L157.164 251.983C161.786 248.167 166.427 244.369 171.087 240.594L171.103 240.613C166.528 244.49 161.932 248.341 157.323 252.174L150.396 257.908L143.489 263.586L144.091 267.203L147.851 264.118L151.683 260.945C154.226 258.815 156.768 256.685 159.307 254.554L165.495 249.428L171.689 244.357L171.084 240.606L171.109 240.6Z" fill="black"/>
                </g>
            </g>
        </g>
        <g opacity="0.7">
            <path opacity="0.7" d="M170.14 235.016L170.793 238.804L143.094 261.751L142.441 257.963L170.14 235.016Z" fill="white"/>
            <g opacity="0.7">
                <g opacity="0.7">
                    <path opacity="0.7" d="M170.152 235.013L170.85 238.824L164.671 244.003L158.487 249.126C155.919 251.228 153.351 253.33 150.787 255.431L146.954 258.608L143.049 261.869L142.345 257.926L149.287 252.131L156.211 246.394C160.832 242.577 165.473 238.779 170.133 235.004L170.149 235.023C165.575 238.9 160.978 242.751 156.369 246.584L149.443 252.318L142.535 257.996L143.138 261.625L146.897 258.541L150.73 255.365C153.272 253.234 155.814 251.101 158.357 248.971L164.541 243.848L170.732 238.779L170.124 235.013H170.152Z" fill="black"/>
                </g>
            </g>
        </g>
        <g opacity="0.7">
            <path opacity="0.7" d="M138.118 274.27L138.768 278.042L121.59 292.243L120.937 288.468L138.118 274.27Z" fill="white"/>
            <g opacity="0.7">
                <g opacity="0.7">
                    <path opacity="0.7" d="M138.125 274.267L138.839 278.071L135.272 281.061L131.713 283.999L126.644 288.114L124.127 290.193L121.54 292.361L120.83 288.428L125.151 284.82L129.446 281.273C132.318 278.914 135.203 276.575 138.106 274.258L138.122 274.277C135.298 276.692 132.458 279.086 129.601 281.463L125.309 285.014L121.042 288.507L121.632 292.121L124.076 290.13L126.593 288.05L131.589 283.847L135.146 280.905L138.693 278.014L138.103 274.27L138.125 274.267Z" fill="black"/>
                </g>
            </g>
        </g>
        <g opacity="0.7">
            <path opacity="0.7" d="M177.644 228.828L178.294 232.6L173.723 236.388L173.082 232.6L177.644 228.828Z" fill="white"/>
            <g opacity="0.7">
                <g opacity="0.7">
                    <path opacity="0.7" d="M177.656 228.825C177.795 229.45 177.925 230.074 178.049 230.699L178.23 231.64L178.407 232.642L177.545 233.349C176.908 233.856 176.258 234.344 175.63 234.861C175.313 235.115 174.999 235.378 174.692 235.641L173.681 236.509L173.678 236.513L173.3 234.512L172.948 232.55L174.147 231.564L175.297 230.635C176.068 230.021 176.848 229.415 177.637 228.822L177.653 228.841C176.92 229.504 176.179 230.157 175.431 230.8L174.302 231.758L173.218 232.655L173.506 234.481L173.649 235.432L173.719 235.907L173.754 236.145L173.77 236.272C173.811 236.243 174.01 236.085 174.163 235.964L174.638 235.584C174.955 235.327 175.269 235.07 175.58 234.804C176.204 234.281 176.806 233.733 177.421 233.203L178.182 232.566L178.036 231.682L177.89 230.734C177.795 230.103 177.71 229.469 177.634 228.835L177.656 228.825Z" fill="black"/>
                </g>
            </g>
        </g>
        <g opacity="0.7">
            <path opacity="0.7" d="M167.503 219.367L168.153 223.139L136.177 249.58L135.54 245.805L167.503 219.367Z" fill="white"/>
            <g opacity="0.7">
                <g opacity="0.7">
                    <path opacity="0.7" d="M167.512 219.364L168.203 223.159L160.959 229.214L153.703 235.214C150.781 237.605 147.858 239.998 144.935 242.388L140.57 245.999L136.135 249.698L136.129 249.704L135.444 245.774L143.449 239.107L151.437 232.495C156.769 228.095 162.12 223.717 167.49 219.361L167.505 219.38C162.221 223.837 156.915 228.272 151.595 232.685L143.604 239.291L135.628 245.843L136.218 249.463H136.221L140.516 245.942L144.881 242.331C147.779 239.909 150.679 237.487 153.573 235.069L160.829 229.071L168.095 223.127L167.483 219.374L167.512 219.364Z" fill="black"/>
                </g>
            </g>
        </g>
        <g opacity="0.7">
            <path opacity="0.7" d="M166.54 213.742L167.193 217.53L137.747 241.866L137.097 238.094L166.54 213.742Z" fill="white"/>
            <g opacity="0.7">
                <g opacity="0.7">
                    <path opacity="0.7" d="M166.548 213.738L167.245 217.548L160.633 223.077L154.014 228.548C151.304 230.764 148.59 232.983 145.877 235.199L141.825 238.546L137.704 241.982L137.701 241.986L137.001 238.055L144.377 231.908L151.735 225.819C156.648 221.768 161.578 217.735 166.526 213.729L166.542 213.748C161.676 217.859 156.791 221.945 151.89 226.009L144.529 232.095L137.188 238.125L137.79 241.742L141.772 238.483L145.823 235.135C148.511 232.888 151.199 230.64 153.887 228.396L160.506 222.925L167.134 217.507L166.523 213.741L166.548 213.738Z" fill="black"/>
                </g>
            </g>
        </g>
        <g opacity="0.7">
            <path opacity="0.7" d="M165.576 208.113L166.23 211.901L136.787 236.253L136.134 232.465L165.576 208.113Z" fill="white"/>
            <g opacity="0.7">
                <g opacity="0.7">
                    <path opacity="0.7" d="M165.584 208.11L166.281 211.92L159.669 217.452L153.05 222.926C150.34 225.145 147.626 227.364 144.913 229.583L140.861 232.934L136.74 236.373L136.04 232.43L143.416 226.283L150.774 220.194C155.687 216.143 160.617 212.11 165.565 208.104L165.581 208.123C160.715 212.234 155.83 216.32 150.929 220.384L143.568 226.47L136.227 232.5L136.832 236.129L140.811 232.87L144.862 229.52C147.55 227.272 150.238 225.022 152.926 222.774L159.545 217.3L166.174 211.879L165.562 208.113L165.584 208.11Z" fill="black"/>
                </g>
            </g>
        </g>
        <g opacity="0.7">
            <path opacity="0.7" d="M164.615 202.5L165.265 206.275L125.295 239.332L124.642 235.544L164.615 202.5Z" fill="white"/>
            <g opacity="0.7">
                <g opacity="0.7">
                    <path opacity="0.7" d="M164.624 202.499L165.309 206.291L156.068 214.003L146.812 221.659C143.223 224.6 139.632 227.545 136.047 230.49L130.683 234.928L125.246 239.455V239.448L124.552 235.514L134.557 227.196L144.545 218.932C151.212 213.432 157.897 207.952 164.605 202.496L164.621 202.515C158.002 208.075 151.361 213.61 144.704 219.123L134.709 227.38L124.73 235.581L125.338 239.211V239.214L130.632 234.868L135.996 230.43C139.559 227.456 143.125 224.483 146.688 221.513L155.944 213.857L165.217 206.259L164.598 202.506L164.624 202.499Z" fill="black"/>
                </g>
            </g>
        </g>
        <g opacity="0.7">
            <path opacity="0.7" d="M163.652 196.877L164.289 200.665L124.332 233.706L123.682 229.933L163.652 196.877Z" fill="white"/>
            <g opacity="0.7">
                <g opacity="0.7">
                    <path opacity="0.7" d="M163.66 196.874L164.332 200.681L155.098 208.387L145.848 216.036C142.26 218.978 138.671 221.923 135.083 224.864L129.719 229.299L124.283 233.826V233.82L123.589 229.898L133.593 221.577L143.582 213.31C150.248 207.807 156.934 202.323 163.638 196.867L163.654 196.886C157.035 202.45 150.397 207.984 143.74 213.503L133.745 221.764L123.766 229.968L124.375 233.585V233.588L129.669 229.242L135.032 224.807C138.595 221.837 142.161 218.864 145.725 215.89L154.974 208.244L164.24 200.652L163.635 196.88L163.66 196.874Z" fill="black"/>
                </g>
            </g>
        </g>
        <g opacity="0.7">
            <path opacity="0.7" d="M162.69 191.262L163.324 195.037L123.37 228.094L122.717 224.305L162.69 191.262Z" fill="white"/>
            <g opacity="0.7">
                <g opacity="0.7">
                    <path opacity="0.7" d="M162.699 191.259L163.368 195.053L154.134 202.769L144.881 210.425C141.292 213.366 137.704 216.311 134.116 219.256L128.755 223.691L123.322 228.215L123.319 228.199L122.625 224.274L132.629 215.956L142.618 207.692C149.284 202.192 155.969 196.711 162.677 191.256L162.693 191.275C156.074 196.835 149.433 202.37 142.776 207.882L132.781 216.14L122.802 224.341L123.411 227.967V227.974L128.701 223.628L134.062 219.193C137.625 216.219 141.191 213.246 144.754 210.273L154.007 202.617L163.276 195.019L162.674 191.262L162.699 191.259Z" fill="black"/>
                </g>
            </g>
        </g>
    </g>
    <path d="M100.242 137.171L112.513 212.065C113.065 215.485 114.618 217.758 116.691 218.716L116.907 218.801L117.176 218.912L125.948 222.361C123.846 221.426 122.274 219.14 121.732 215.685L109.464 140.807C108.608 132.714 111.686 124.701 117.747 119.267L220.492 35.6973C223.336 33.3959 226.173 32.765 228.43 33.6114L219.44 30.061C217.135 29.1227 214.327 29.7155 211.325 32.0898L108.567 115.574C102.477 121.014 99.3802 129.053 100.242 137.171Z" fill="#28A4FF" stroke="#030B39" stroke-width="1.5" stroke-miterlimit="10"/>
    <path d="M125.875 222.184C128.18 223.223 131.144 222.656 134.143 220.247L236.885 136.68C242.933 131.237 246.011 123.233 245.168 115.14L232.878 40.2525C232.317 36.6799 230.671 34.3563 228.443 33.4751C226.186 32.6319 223.365 33.2595 220.505 35.5609L117.76 119.128C111.702 124.561 108.621 132.575 109.477 140.668L121.745 215.546C122.306 218.998 123.571 221.147 125.875 222.184Z" fill="#1626AE" stroke="#030B39" stroke-width="1.5" stroke-miterlimit="10"/>
    <path opacity="0.2" d="M130.2 212.096L118.252 139.26C117.919 134.321 119.802 129.487 123.391 126.073L224.56 43.8848L236.489 116.709C236.828 121.651 234.955 126.488 231.369 129.908L130.2 212.096Z" fill="white" stroke="#030B39" stroke-width="1.5" stroke-miterlimit="10"/>
    <path d="M155.819 126.193C156.431 131.947 154.941 137.729 151.622 142.471L152.139 145.765L161.322 141.511C165.018 139.802 168.115 141.796 168.825 146.342L171.418 162.347L153.007 177.157L134.602 191.999L132.009 175.994C131.483 170.792 133.071 165.596 136.412 161.573L144.721 151.721L144.192 148.345C140.337 149.369 137.113 146.976 136.305 141.821C135.522 134.22 138.429 126.704 144.119 121.603C149.511 117.248 154.763 119.242 155.819 126.193Z" fill="#D1BFF9" stroke="#030B39" stroke-width="1.5" stroke-miterlimit="10"/>
    <path d="M219.678 68.6719L220.287 72.4378L175.888 108.287L175.283 104.537L219.678 68.6719Z" fill="white" stroke="#030B39" stroke-width="1.5" stroke-miterlimit="10"/>
    <path d="M222.652 87.3164L223.257 91.0823L199.422 110.353L198.814 106.583L222.652 87.3164Z" fill="white" stroke="#030B39" stroke-width="1.5" stroke-miterlimit="10"/>
    <path d="M221.659 81.0938L222.264 84.8628L189.832 111.063L189.23 107.309L221.659 81.0938Z" fill="white" stroke="#030B39" stroke-width="1.5" stroke-miterlimit="10"/>
    <path d="M220.671 74.8906L221.276 78.6439L176.881 114.509L176.275 110.756L220.671 74.8906Z" fill="white" stroke="#030B39" stroke-width="1.5" stroke-miterlimit="10"/>
    <path d="M218.528 61.4277L219.117 65.2L193.111 86.2264L192.509 82.4732L218.528 61.4277Z" fill="white" stroke="#030B39" stroke-width="1.5" stroke-miterlimit="10"/>
    <path d="M227.474 117.564L228.076 121.315L194.328 148.579L193.739 144.826L227.474 117.564Z" fill="white" stroke="#030B39" stroke-width="1.5" stroke-miterlimit="10"/>
    <path d="M224.341 97.8984L224.947 101.649L192.515 127.864L191.909 124.098L224.341 97.8984Z" fill="white" stroke="#030B39" stroke-width="1.5" stroke-miterlimit="10"/>
    <path d="M226.481 111.342L227.089 115.111L182.691 150.96L182.101 147.207L226.481 111.342Z" fill="white" stroke="#030B39" stroke-width="1.5" stroke-miterlimit="10"/>
    <path d="M225.489 105.123L226.094 108.873L181.699 144.741L181.109 140.985L225.489 105.123Z" fill="white" stroke="#030B39" stroke-width="1.5" stroke-miterlimit="10"/>
    <path d="M122.822 7.44831L75.7985 49.0225C74.3688 50.2936 73.3101 51.9262 72.73 53.7489C72.1625 55.4829 72.0611 57.3373 72.4351 59.1252L80.4266 97.9732C81.6312 103.597 87.1692 107.179 92.7927 105.974C94.7137 105.562 96.4794 104.614 97.8837 103.242L106.059 96.03L107.172 97.2187C107.222 97.2536 107.276 97.2853 107.333 97.3106L107.435 97.2885C109.175 97.9922 112.155 98.8703 112.817 99.07C113.128 99.1112 113.417 98.8956 113.461 98.5818L114.872 88.2097L144.872 61.7626C147.735 59.2456 149.031 55.3878 148.267 51.6536L140.254 12.6883C138.741 5.16593 126.946 3.81869 122.822 7.44831Z" fill="#F9D2D2" stroke="#030B39" stroke-width="1.5" stroke-miterlimit="10"/>
    <path opacity="0.2" d="M107.156 97.1183C107.207 97.1532 107.261 97.1849 107.318 97.2103L107.42 97.1881C109.16 97.8918 112.14 98.7699 112.802 98.9696C112.66 98.9632 112.526 98.8998 112.431 98.7984L107.933 94.1608L108.52 93.6504L105.961 95.9486L107.156 97.1183Z" fill="white" stroke="#030B39" stroke-width="1.5" stroke-miterlimit="10"/>
    <path d="M72.4389 59.1255C72.0649 57.3377 72.1631 55.4801 72.7306 53.7461L84.2185 57.5342C83.8825 58.7071 83.7462 59.937 83.8223 61.1575C83.8857 61.5759 83.9713 61.9912 84.0791 62.4001L92.0611 101.197C92.1657 101.914 92.4858 102.579 92.9804 103.109C94.2991 104.507 96.4959 104.558 97.8875 103.242C96.4895 104.621 94.7207 105.562 92.7965 105.981C87.1761 107.182 81.6414 103.6 80.4336 97.9767L72.4389 59.1255Z" fill="#EF996E" stroke="#030B39" stroke-width="1.5" stroke-miterlimit="10"/>
    <path d="M140.203 12.3179C140.045 11.8012 139.772 11.3225 139.392 10.9263C138.066 9.53786 135.87 9.48714 134.481 10.809L87.4579 52.3864C87.068 52.7287 86.7066 53.1028 86.3801 53.5085C85.4133 54.6719 84.7032 56.0255 84.2943 57.4869L72.7271 53.7495C73.3135 51.9394 74.3754 50.3164 75.8083 49.0547L122.832 7.48688C126.88 3.95237 138.304 5.17914 140.203 12.3179Z" fill="#EF996E" stroke="#030B39" stroke-width="1.5" stroke-miterlimit="10"/>
    <path d="M127.003 25.7105C127.719 24.9212 128.807 24.5756 129.846 24.8071C131.634 25.3967 132.351 28.3669 131.222 31.4894L116.834 74.8197C116.393 76.2113 115.61 77.4698 114.554 78.4779C113.835 79.264 112.747 79.6032 111.708 79.3655L100.958 75.8722C99.1705 75.2825 98.4541 72.3123 99.5826 69.1898C100.014 67.7951 100.8 66.5334 101.862 65.5317C102.581 64.7455 103.669 64.4064 104.708 64.6441L112.19 67.0755L124.724 29.3718C125.152 27.9707 125.935 26.709 127.003 25.7105Z" fill="#1626AE" stroke="#030B39" stroke-width="1.5" stroke-miterlimit="10"/>
    <path d="M70.5588 206.656C69.9279 206.672 69.3922 206.466 68.9706 206.013C67.6297 204.567 66.1525 203.267 64.7419 201.898C64.1998 201.372 63.9938 201.559 63.5214 201.939C62.1457 203.046 61.0774 204.482 59.597 205.486C58.982 205.905 58.3702 206.095 57.844 205.781C57.2163 205.41 56.6362 204.856 56.6426 203.952C56.6521 202.893 57.3178 202.269 58.0342 201.673C59.0803 200.801 59.9235 199.711 61.0679 198.94C61.6448 198.55 61.1344 198.205 60.846 198.018C59.4987 197.146 58.665 195.729 57.3622 194.816C56.6362 194.306 56.2337 193.482 55.5046 192.946C54.8832 192.489 54.8611 191.307 55.2922 190.638C55.6662 190.055 56.7218 189.659 57.4161 189.877C57.9106 190.036 58.4368 190.188 58.7633 190.626C59.7555 191.951 61.239 192.775 62.2376 194.109C62.6846 194.705 63.3693 195.124 63.9462 195.625C64.111 195.77 64.2632 195.78 64.4154 195.609C65.062 194.886 65.9401 194.442 66.5488 193.634C67.3096 192.623 68.4571 191.96 69.3478 191.028C70.1847 190.156 71.5795 190.559 72.1089 191.624C72.5717 192.562 72.4354 193.399 71.6746 194.233C71.551 194.369 71.4178 194.502 71.272 194.613C69.8772 195.698 68.8311 197.168 67.3508 198.164C66.8784 198.481 66.9767 198.826 67.3888 199.115C68.9231 200.186 70.0896 201.66 71.4464 202.922C72.1121 203.54 72.7619 204.371 72.1755 205.543C71.8046 206.288 71.2974 206.577 70.5588 206.656Z" fill="#1425AA"/>
    <path d="M254.931 178.98C254.3 178.996 253.765 178.79 253.343 178.337C252.002 176.891 250.525 175.592 249.114 174.222C248.572 173.696 248.366 173.883 247.894 174.263C246.518 175.37 245.45 176.806 243.969 177.811C243.354 178.229 242.743 178.419 242.216 178.105C241.589 177.734 241.009 177.18 241.015 176.276C241.024 175.218 241.69 174.593 242.407 173.997C243.453 173.125 244.296 172.035 245.44 171.265C246.017 170.875 245.507 170.529 245.218 170.342C243.871 169.47 243.037 168.053 241.734 167.14C241.009 166.63 240.606 165.806 239.877 165.27C239.256 164.814 239.233 163.631 239.664 162.962C240.039 162.379 241.094 161.983 241.788 162.202C242.283 162.36 242.809 162.512 243.136 162.95C244.128 164.275 245.611 165.099 246.61 166.434C247.057 167.029 247.742 167.448 248.319 167.949C248.483 168.095 248.636 168.104 248.788 167.933C249.434 167.21 250.312 166.766 250.921 165.958C251.682 164.947 252.829 164.284 253.72 163.352C254.557 162.481 255.952 162.883 256.481 163.948C256.944 164.887 256.808 165.723 256.047 166.557C255.923 166.693 255.79 166.827 255.644 166.938C254.25 168.022 253.203 169.493 251.723 170.488C251.251 170.805 251.349 171.15 251.761 171.439C253.295 172.51 254.462 173.984 255.819 175.246C256.484 175.864 257.134 176.695 256.548 177.868C256.174 178.613 255.667 178.904 254.931 178.98Z" fill="#6773EC"/>
    <path d="M239.033 221.07C243.953 221.419 248.289 223.819 250.676 229.055C253.367 234.964 250.372 241.574 244.174 243.507C239.464 244.975 235.213 243.875 231.46 240.794C229.31 239.031 227.922 236.746 227.323 234.013C226.277 229.242 228.508 224.554 232.88 222.373C234.595 221.517 236.421 221.086 239.033 221.07ZM238.89 225.236C237.105 225.163 235.473 225.765 233.986 226.849C231.517 228.647 229.716 232.612 231.954 236.533C234.455 240.921 240.795 242.185 244.872 238.099C247.104 235.861 247.436 232.473 246.406 229.994C245.202 227.1 241.99 225.09 238.89 225.236Z" fill="#FB916C"/>
    <path d="M238.898 225.062C237.845 225.03 236.79 225.249 235.842 225.68C234.894 226.108 234.025 226.697 233.296 227.426C232.57 228.156 232.003 229.03 231.623 229.972C231.239 230.913 231.03 231.925 231.046 232.936C231.055 233.947 231.268 234.958 231.67 235.9C232.063 236.844 232.662 237.713 233.417 238.414C234.159 239.127 235.052 239.688 236.022 240.046C236.996 240.395 238.026 240.547 239.047 240.512C239.3 240.49 239.557 240.499 239.807 240.449L240.559 240.319L241.288 240.106C241.411 240.078 241.529 240.03 241.643 239.976L241.992 239.831C242.908 239.418 243.773 238.88 244.48 238.163C245.97 236.819 246.75 234.816 246.775 232.815C246.785 232.315 246.737 231.811 246.648 231.316C246.566 230.818 246.42 230.333 246.227 229.864C246.046 229.392 245.783 228.951 245.504 228.523C245.206 228.111 244.886 227.705 244.512 227.354C243.05 225.914 240.996 225.001 238.879 225.059V225.052C240.993 224.963 243.092 225.791 244.648 227.201C245.047 227.547 245.39 227.95 245.713 228.365C246.017 228.796 246.306 229.243 246.515 229.731C246.734 230.213 246.902 230.72 247.003 231.237C247.111 231.753 247.174 232.28 247.171 232.809C247.181 233.338 247.13 233.865 247.032 234.385C246.943 234.904 246.778 235.412 246.582 235.903C246.173 236.876 245.564 237.78 244.768 238.477C244.017 239.216 243.092 239.767 242.125 240.17L241.757 240.312C241.633 240.363 241.513 240.408 241.383 240.436L240.616 240.629L239.833 240.734C239.573 240.775 239.307 240.753 239.043 240.766C237.991 240.763 236.942 240.566 235.959 240.192C234.98 239.808 234.079 239.235 233.306 238.521C232.532 237.811 231.892 236.949 231.451 235.992C231.004 235.041 230.744 233.992 230.722 232.933C230.703 231.874 230.935 230.818 231.353 229.852C231.772 228.882 232.383 227.997 233.154 227.277C233.93 226.555 234.827 225.997 235.801 225.594C236.774 225.192 237.839 225.005 238.891 225.052L238.898 225.062Z" fill="black"/>
    <path d="M239.024 221.245C240.561 221.356 242.096 221.635 243.544 222.183C244.987 222.735 246.356 223.521 247.507 224.576C248.667 225.616 249.64 226.874 250.369 228.26C250.737 228.951 251.054 229.674 251.288 230.422C251.52 231.173 251.675 231.95 251.732 232.733C251.846 234.302 251.574 235.893 250.968 237.335C250.366 238.778 249.437 240.071 248.29 241.117C247.136 242.157 245.763 242.946 244.289 243.438C243.551 243.682 242.796 243.888 242.026 244.011C241.259 244.154 240.476 244.205 239.693 244.198C238.91 244.202 238.127 244.094 237.356 243.945C236.586 243.78 235.835 243.539 235.103 243.241C233.651 242.623 232.3 241.777 231.096 240.756C229.882 239.738 228.874 238.467 228.164 237.047C227.453 235.624 227.035 234.07 226.924 232.485C226.902 232.289 226.902 232.089 226.905 231.893C226.908 231.696 226.902 231.496 226.911 231.3C226.953 230.907 226.962 230.51 227.045 230.121C227.155 229.338 227.403 228.58 227.691 227.848C227.996 227.122 228.385 226.434 228.839 225.797C229.311 225.175 229.818 224.573 230.421 224.072C230.703 223.803 231.032 223.59 231.337 223.349C231.498 223.242 231.663 223.14 231.828 223.036C231.993 222.931 232.155 222.826 232.329 222.741C233.007 222.364 233.724 222.059 234.462 221.831C235.939 221.368 237.493 221.238 239.04 221.238V221.245C237.496 221.26 235.946 221.422 234.491 221.913C233.765 222.154 233.061 222.475 232.402 222.864C232.231 222.953 232.072 223.058 231.914 223.166C231.755 223.273 231.593 223.375 231.438 223.486C231.143 223.73 230.826 223.945 230.557 224.218C229.98 224.722 229.501 225.324 229.054 225.943C228.63 226.577 228.265 227.252 227.986 227.962C227.723 228.675 227.501 229.41 227.406 230.171C227.333 230.545 227.33 230.929 227.298 231.309C227.292 231.5 227.301 231.69 227.301 231.883C227.301 232.073 227.304 232.263 227.327 232.454C227.453 233.972 227.872 235.478 228.56 236.844C229.251 238.21 230.215 239.431 231.378 240.426C232.544 241.428 233.85 242.271 235.252 242.899C235.959 243.2 236.684 243.45 237.429 243.628C238.177 243.79 238.935 243.913 239.702 243.932C240.469 243.954 241.237 243.923 241.997 243.799C242.758 243.694 243.506 243.504 244.238 243.273C245.7 242.807 247.06 242.03 248.185 240.99C249.31 239.954 250.195 238.66 250.75 237.237C251.308 235.817 251.536 234.267 251.415 232.745C251.358 231.985 251.209 231.23 250.991 230.501C250.765 229.772 250.467 229.065 250.112 228.38C249.415 227.011 248.486 225.759 247.37 224.709C246.261 223.647 244.933 222.833 243.513 222.253C242.089 221.676 240.561 221.365 239.027 221.238L239.024 221.245Z" fill="black"/>
    <path d="M31.6949 221.299C31.8756 223.121 30.3033 225.651 27.6405 226.339C23.6559 227.366 20.1182 223.79 21.1453 219.767C21.7095 217.555 23.1899 216.147 25.2377 215.272C25.8019 215.032 26.3979 215 26.9843 215.168C29.9356 216.011 31.8059 219.089 31.6949 221.299Z" fill="#A95776"/>
    <path d="M72.9199 158.337C72.8121 158.312 73.0815 158.343 73.3256 158.442C75.2054 159.209 76.1469 161.84 75.1864 163.612C74.5334 164.813 73.2591 165.406 71.9213 165.105C70.5297 164.791 69.6485 163.916 69.3061 162.547C68.9828 161.26 69.4868 160.229 70.4631 159.405C70.7896 159.126 71.1352 158.87 71.487 158.622C71.804 158.4 72.1496 158.251 72.9199 158.337Z" fill="#1F1189"/>
    <path d="M213.581 204.072C213.737 204.072 213.79 204.072 213.844 204.072C215.391 204.088 216.364 204.805 216.555 206.066C216.751 207.363 215.952 208.729 214.735 209.17C213.458 209.632 212.088 209.122 211.388 207.936C210.947 207.192 210.89 206.393 211.134 205.594C211.391 204.76 211.974 204.228 212.874 204.117C213.144 204.082 213.413 204.082 213.581 204.072Z" fill="#142AA2"/>
    <path d="M218.377 264.914C208.772 268.02 201.472 273.97 196.419 282.684C196.092 283.249 195.944 283.391 195.338 282.998C192.84 281.372 190.158 281.255 187.404 282.266C185.498 282.963 183.898 284.12 182.414 285.449C182.386 285.474 182.351 285.506 182.309 285.541C181.764 286.07 180.281 287.747 180.084 287.969C180.078 287.975 180.068 287.988 180.062 287.994C175.605 293.519 173.199 299.977 171.823 306.893C171.56 308.206 171.96 308.786 173.256 309.195C174.302 309.525 175.38 309.41 176.439 309.303C177.054 309.242 177.012 308.71 177.073 308.263C177.767 303.089 179.58 298.331 182.348 293.938C182.427 293.805 182.512 293.672 182.598 293.538C182.63 293.488 182.661 293.437 182.687 293.386C182.709 293.354 182.728 293.323 182.747 293.291C182.798 293.206 182.855 293.114 182.924 293.028C182.928 293.025 182.928 293.022 182.931 293.022C183.359 292.391 183.977 291.563 184.643 290.914C185.8 289.674 187.068 288.584 188.7 287.966C190.244 287.379 191.689 287.531 192.999 288.612C193.347 288.901 193.465 289.116 193.214 289.57C192.086 291.636 191.376 293.849 190.878 296.147C189.902 300.68 189.775 305.166 191.423 309.585C192.552 312.609 194.679 314.514 197.887 314.961C201.041 315.402 203.33 313.858 205.025 311.335C207.057 308.304 207.542 304.865 207.248 301.349C206.804 296.144 204.655 291.674 200.819 288.08C200.451 287.734 200.581 287.471 200.686 287.145C201.196 285.553 201.954 284.079 202.917 282.726C207.21 276.693 212.684 272.176 219.718 269.684C220.073 269.561 220.397 269.481 220.311 268.974C220.137 267.915 220.007 266.85 219.851 265.792C219.725 264.904 219.306 264.612 218.377 264.914ZM176.42 308.453C176.252 308.78 175.922 308.7 175.58 308.868C175.123 308.852 174.568 308.871 174.029 308.799C172.508 308.589 172.194 308.133 172.476 306.634C172.536 306.317 172.606 306.003 172.676 305.686C172.996 304.256 173.218 304.136 174.657 304.579C174.752 304.608 174.841 304.643 174.933 304.678C176.851 305.35 177.358 306.649 176.42 308.453ZM214.58 271.282C211.036 273.333 207.885 275.869 205.146 278.909C202.864 281.442 200.971 284.212 199.89 287.493C199.735 287.962 199.735 288.149 200.217 288.365C200.616 288.546 200.984 288.872 201.269 289.211C204.943 293.573 207.127 298.49 206.639 304.31C206.439 306.713 205.942 309.062 204.477 311.1C202.87 313.338 200.838 314.774 197.972 314.375C195.005 313.962 193.043 312.197 192.003 309.41C190.453 305.251 190.488 301.019 191.369 296.734C191.895 294.166 192.669 291.703 193.981 289.427C194.203 289.04 194.181 288.856 193.801 288.489C191.832 286.577 189.369 286.675 187.083 288.083C185.169 289.265 183.698 290.907 182.42 292.73C179.98 296.201 178.366 300.053 177.323 304.148C177.139 304.865 177.003 305.115 176.252 304.627C175.348 304.04 174.302 303.739 173.075 303.822C174.733 297.856 177.06 292.391 181.035 287.753C182.871 285.607 184.988 283.797 187.689 282.811C190.253 281.873 192.729 282.044 195.069 283.524C195.237 283.629 195.471 283.708 195.541 283.86C196.194 285.262 196.356 284.13 196.59 283.654C199.19 278.348 203.234 274.316 207.901 270.845C209.752 269.466 211.727 268.277 213.898 267.25C214.126 268.483 214.402 269.662 215.112 270.699C215.404 271.114 214.805 271.152 214.58 271.282ZM219.404 266.755C219.725 268.895 219.725 268.895 217.728 269.71C217.49 269.808 217.252 269.913 217.017 270.017C215.651 270.616 215.591 270.591 215.017 269.228C214.992 269.168 214.973 269.107 214.947 269.05C214.26 267.202 214.333 267.025 216.165 266.315C216.707 266.105 217.258 265.915 217.813 265.741C219.189 265.319 219.189 265.326 219.404 266.755Z" fill="#030B39"/>
    <path d="M173.076 303.818C174.737 297.849 177.06 292.387 181.035 287.749C182.874 285.603 184.988 283.793 187.692 282.807C190.257 281.872 192.733 282.044 195.072 283.521C195.237 283.625 195.472 283.705 195.541 283.857C196.191 285.255 196.356 284.126 196.591 283.651C199.19 278.347 203.235 274.315 207.901 270.844C209.752 269.465 211.727 268.276 213.899 267.246C214.13 268.479 214.399 269.658 215.113 270.698C215.404 271.12 214.802 271.158 214.58 271.288C211.036 273.336 207.885 275.875 205.143 278.915C202.861 281.448 200.968 284.221 199.887 287.496C199.732 287.965 199.732 288.152 200.214 288.371C200.613 288.551 200.981 288.878 201.269 289.217C204.94 293.579 207.124 298.493 206.639 304.316C206.44 306.719 205.939 309.068 204.477 311.103C202.867 313.341 200.838 314.777 197.973 314.377C195.009 313.962 193.043 312.203 192.004 309.41C190.453 305.254 190.488 301.019 191.37 296.733C191.896 294.169 192.669 291.706 193.982 289.426C194.207 289.036 194.181 288.859 193.804 288.491C191.832 286.577 189.369 286.675 187.087 288.086C185.169 289.268 183.701 290.91 182.424 292.733C179.986 296.207 178.373 300.055 177.327 304.151C177.143 304.867 177.006 305.118 176.255 304.63C175.352 304.037 174.306 303.736 173.076 303.818ZM202.896 299.789C202.233 297.018 201.114 294.391 198.908 292.352C198.033 291.544 197.773 291.598 197.326 292.695C196.432 294.888 195.671 297.129 195.348 299.491C195.044 301.713 195.11 303.897 196.099 305.967C196.321 306.433 196.584 306.887 196.898 307.296C198.315 309.15 200.591 309.09 201.821 307.112C203.206 304.88 203.343 302.414 202.896 299.789Z" fill="#6773EC"/>
    <path d="M219.406 266.756C219.726 268.899 219.726 268.896 217.729 269.714C217.491 269.812 217.253 269.914 217.015 270.018C215.649 270.62 215.589 270.595 215.018 269.232C214.993 269.172 214.971 269.112 214.949 269.051C214.261 267.206 214.337 267.026 216.166 266.316C216.708 266.106 217.26 265.916 217.814 265.745C219.19 265.32 219.193 265.327 219.406 266.756Z" fill="#D9598C"/>
    <path d="M175.583 308.869C175.127 308.85 174.572 308.873 174.033 308.8C172.511 308.594 172.198 308.137 172.483 306.635C172.543 306.318 172.61 306.001 172.679 305.684C173 304.257 173.218 304.133 174.664 304.577C174.756 304.606 174.848 304.644 174.936 304.676C176.854 305.351 177.361 306.65 176.423 308.454C176.252 308.781 175.925 308.705 175.583 308.869Z" fill="#D9598C"/>
    <path d="M202.896 299.789C203.343 302.414 203.206 304.88 201.818 307.118C200.588 309.096 198.312 309.156 196.895 307.302C196.584 306.893 196.321 306.437 196.096 305.974C195.104 303.904 195.04 301.72 195.345 299.497C195.668 297.136 196.429 294.895 197.323 292.701C197.77 291.601 198.03 291.55 198.905 292.359C201.111 294.391 202.233 297.019 202.896 299.789ZM202.278 299.814C201.704 297.37 200.645 294.901 198.642 292.907C198.188 292.454 197.966 292.482 197.732 293.116C197.072 294.911 196.445 296.717 196.093 298.6C195.598 301.263 195.551 303.901 196.971 306.354C197.513 307.289 198.201 308.06 199.399 308.025C200.616 307.99 201.228 307.131 201.675 306.161C202.572 304.208 202.709 302.163 202.278 299.814Z" fill="#030B39"/>
    <path d="M70.5053 118.284C65.8137 111.516 59.4452 107.221 51.4505 105.329C50.9338 105.208 50.788 105.126 50.9497 104.558C51.6312 102.222 51.0892 100.104 49.65 98.1897C48.6578 96.8679 47.374 95.8884 45.9887 95.0451C45.9633 95.0293 45.9285 95.0103 45.8904 94.9849C45.3484 94.6838 43.6905 93.9198 43.4717 93.8215C43.4654 93.8184 43.4527 93.8152 43.4464 93.8088C38.0796 91.6311 32.4719 91.276 26.7438 91.834C25.6597 91.9386 25.2983 92.3855 25.2856 93.495C25.2761 94.3889 25.6184 95.2036 25.9513 96.0056C26.1415 96.4716 26.5504 96.3131 26.9118 96.2561C31.1152 95.5777 35.2583 95.8725 39.3413 96.9978C39.4649 97.0295 39.5885 97.0644 39.7121 97.0993C39.7597 97.1151 39.8041 97.1246 39.8516 97.1341C39.8801 97.1437 39.9118 97.1532 39.9404 97.1595C40.0196 97.1785 40.1052 97.2039 40.1876 97.2356C40.1908 97.2356 40.194 97.2388 40.194 97.2388C40.7868 97.4258 41.5793 97.7111 42.2418 98.0788C43.4812 98.6906 44.6319 99.4229 45.5005 100.555C46.3215 101.623 46.5466 102.786 46.0077 104.064C45.8651 104.403 45.7224 104.546 45.3103 104.457C43.4305 104.061 41.5349 104.029 39.6234 104.184C35.8511 104.492 32.3229 105.449 29.2576 107.779C27.1622 109.373 26.1764 111.485 26.5821 114.094C26.9815 116.661 28.725 118.084 31.0962 118.81C33.9428 119.682 36.7419 119.251 39.4173 118.189C43.3766 116.617 46.3596 113.884 48.2616 110.039C48.4454 109.671 48.68 109.709 48.959 109.713C50.322 109.735 51.6503 109.979 52.9373 110.413C58.6591 112.341 63.4774 115.552 67.0849 120.459C67.2655 120.706 67.4018 120.941 67.7791 120.754C68.5652 120.37 69.3672 120.015 70.1566 119.644C70.8286 119.333 70.9586 118.94 70.5053 118.284ZM26.6106 95.7901C26.3158 95.7362 26.3 95.4604 26.0876 95.2322C25.9925 94.8708 25.8467 94.4428 25.7769 94.0054C25.5804 92.7691 25.8625 92.4141 27.102 92.2809C27.3619 92.2524 27.625 92.2334 27.8881 92.2112C29.0801 92.1256 29.2259 92.2682 29.2195 93.4982C29.2195 93.5774 29.2132 93.6567 29.2069 93.7359C29.1339 95.3938 28.24 96.0976 26.6106 95.7901ZM64.6345 116.823C62.1968 114.537 59.4737 112.677 56.4528 111.253C53.9358 110.068 51.3269 109.243 48.512 109.174C48.1094 109.164 47.9636 109.209 47.9065 109.633C47.859 109.988 47.691 110.353 47.4944 110.654C44.9553 114.553 41.63 117.416 36.9701 118.408C35.0459 118.817 33.0964 118.982 31.1596 118.319C29.0325 117.59 27.4317 116.344 27.0703 114.011C26.6931 111.599 27.6092 109.649 29.5397 108.181C32.4212 105.991 35.7338 105.021 39.2905 104.698C41.4176 104.501 43.5256 104.527 45.6115 105.015C45.9665 105.097 46.1028 105.037 46.3025 104.653C47.3296 102.666 46.6734 100.764 45.0345 99.3119C43.6588 98.0946 42.0294 97.3339 40.3081 96.7664C37.0208 95.6791 33.6321 95.3273 30.1895 95.4794C29.5872 95.5048 29.359 95.4572 29.5651 94.7567C29.8091 93.9135 29.7996 93.0259 29.4446 92.0844C34.4944 91.9734 39.3096 92.4996 43.8711 94.5094C45.9792 95.4382 47.8907 96.665 49.2981 98.5416C50.6359 100.323 51.086 102.298 50.4837 104.473C50.4425 104.628 50.4362 104.831 50.3347 104.92C49.3964 105.76 50.3157 105.62 50.7436 105.69C55.5018 106.47 59.6005 108.676 63.414 111.504C64.9261 112.623 66.3209 113.884 67.6364 115.339C66.7266 115.808 65.8708 116.3 65.2304 117.102C64.961 117.425 64.7898 116.965 64.6345 116.823ZM69.307 119.52C67.7125 120.275 67.7125 120.275 66.6062 118.909C66.473 118.747 66.3367 118.585 66.1973 118.427C65.4079 117.501 65.4111 117.447 66.3431 116.68C66.3843 116.649 66.4255 116.617 66.4667 116.585C67.7474 115.612 67.9059 115.628 68.8917 116.889C69.1834 117.263 69.4623 117.647 69.7286 118.04C70.3785 119.013 70.3753 119.016 69.307 119.52Z" fill="#030B39"/>
    <path d="M29.4417 92.0843C34.4947 91.9733 39.3067 92.4996 43.8683 94.5093C45.9795 95.4381 47.891 96.6617 49.2984 98.5415C50.633 100.323 51.0863 102.298 50.4808 104.473C50.4396 104.625 50.4333 104.828 50.3319 104.92C49.3935 105.756 50.3128 105.62 50.7408 105.69C55.4957 106.47 59.5977 108.676 63.4112 111.5C64.9232 112.623 66.318 113.884 67.6336 115.336C66.7238 115.808 65.8679 116.297 65.2244 117.099C64.9613 117.425 64.7933 116.965 64.6379 116.82C62.2002 114.534 59.4772 112.673 56.4594 111.25C53.9425 110.064 51.3336 109.24 48.5186 109.17C48.116 109.161 47.9702 109.205 47.9132 109.63C47.8656 109.985 47.6976 110.35 47.5011 110.654C44.9619 114.55 41.6398 117.416 36.9768 118.408C35.0526 118.817 33.1031 118.981 31.1662 118.319C29.0392 117.59 27.4383 116.344 27.0738 114.011C26.6997 111.599 27.6095 109.649 29.5432 108.178C32.4247 105.988 35.7373 105.018 39.294 104.694C41.4211 104.501 43.5291 104.523 45.6149 105.011C45.97 105.094 46.1063 105.034 46.3028 104.65C47.3331 102.659 46.6737 100.76 45.0348 99.3087C43.6591 98.0914 42.0297 97.3306 40.3084 96.7632C37.0211 95.679 33.6324 95.3272 30.1899 95.4762C29.5876 95.5015 29.3593 95.454 29.5622 94.7534C29.8063 93.9134 29.7968 93.0258 29.4417 92.0843ZM39.6174 114.42C41.6239 113.25 43.4118 111.754 44.4833 109.551C44.908 108.679 44.8034 108.486 43.8429 108.397C41.9188 108.216 39.9882 108.15 38.0672 108.454C36.2604 108.742 34.5676 109.307 33.1886 110.568C32.878 110.851 32.5832 111.164 32.3391 111.504C31.2264 113.047 31.8097 114.81 33.6451 115.304C35.7151 115.862 37.6742 115.387 39.6174 114.42Z" fill="#85C2FF"/>
    <path d="M69.3073 119.52C67.7097 120.274 67.7097 120.274 66.6034 118.908C66.4702 118.743 66.3339 118.581 66.1976 118.423C65.4051 117.5 65.4083 117.443 66.3402 116.676C66.3815 116.641 66.4227 116.609 66.4639 116.578C67.7414 115.605 67.8999 115.624 68.8857 116.882C69.1774 117.256 69.4563 117.64 69.7194 118.036C70.3788 119.012 70.3756 119.015 69.3073 119.52Z" fill="#142AA2"/>
    <path d="M26.0883 95.2314C25.9932 94.87 25.8474 94.4421 25.7776 94.0046C25.5811 92.7683 25.8632 92.4165 27.1027 92.2833C27.3658 92.2548 27.6289 92.2326 27.892 92.2136C29.0807 92.128 29.2297 92.2706 29.2234 93.5006C29.2234 93.5798 29.2139 93.6591 29.2107 93.7383C29.1346 95.3962 28.2407 96.0968 26.6081 95.7893C26.3165 95.7354 26.3007 95.4596 26.0883 95.2314Z" fill="#142AA2"/>
    <path d="M39.6179 114.419C37.6747 115.389 35.7157 115.862 33.6425 115.307C31.8071 114.815 31.2238 113.05 32.3365 111.506C32.5806 111.167 32.8754 110.853 33.186 110.571C34.5681 109.309 36.2609 108.742 38.0646 108.457C39.9856 108.152 41.9161 108.219 43.8403 108.399C44.804 108.488 44.9054 108.682 44.4806 109.553C43.4124 111.753 41.6277 113.25 39.6179 114.419ZM39.4562 113.944C41.2314 112.92 42.9083 111.509 43.9925 109.474C44.2366 109.011 44.1636 108.846 43.6152 108.815C42.0588 108.723 40.4992 108.659 38.9459 108.827C36.7491 109.068 34.6791 109.655 33.1004 111.341C32.4981 111.985 32.0607 112.704 32.3682 113.63C32.682 114.571 33.4967 114.847 34.3589 114.968C36.0929 115.209 37.7223 114.835 39.4562 113.944Z" fill="#030B39"/>
    <path d="M255.557 104.718C255.64 103.85 256.052 102.762 257.072 102.014C257.538 101.672 258.033 101.469 258.645 101.868C260.391 103.01 262.182 104.081 263.935 105.213C265.841 106.443 267.667 107.796 269.622 108.931C271.591 110.072 273.493 111.331 275.395 112.561C278.251 114.412 281.148 116.206 283.967 118.121C285.662 119.275 287.454 120.289 289.172 121.418C290.544 122.318 291.869 123.288 293.346 124.02C293.705 124.198 293.984 124.467 293.502 124.79C292.424 125.52 291.844 126.613 291.324 127.735C291.077 128.271 290.741 128.157 290.43 127.967C288.69 126.892 286.972 125.786 285.244 124.686C284.493 124.207 283.751 123.713 282.997 123.24C281.212 122.121 279.392 121.063 277.649 119.883C276.615 119.186 275.493 118.65 274.45 117.978C272.596 116.783 270.757 115.559 268.893 114.377C266.281 112.719 263.657 111.087 261.032 109.451C259.504 108.5 257.976 107.555 256.429 106.636C255.817 106.278 255.532 105.774 255.557 104.718Z" fill="#E4758F"/>
    <path d="M295.079 130.552C294.179 130.587 293.564 129.934 292.914 129.5C291.636 128.64 291.731 128.587 292.359 127.084C292.711 126.241 293.453 125.794 293.985 125.138C294.163 124.922 294.391 124.878 294.664 125.046C295.206 125.375 295.776 125.654 296.315 125.987C297.374 126.643 297.754 127.541 297.469 128.615C297.133 129.874 296.372 130.492 295.079 130.552Z" fill="#85C2FF"/>
    <path d="M295.001 131.134C293.746 131.293 292.978 130.278 292.037 129.717C291.435 129.359 290.864 128.922 290.236 128.57C288.309 127.489 286.528 126.173 284.597 125.083C282.546 123.923 280.66 122.477 278.625 121.282C276.697 120.15 274.802 118.958 272.913 117.773C270.655 116.353 268.379 114.952 266.148 113.487C264.886 112.66 263.586 111.905 262.296 111.125C259.932 109.696 257.643 108.139 255.31 106.653C255.034 106.475 254.929 106.253 254.856 105.974C254.343 104.003 255.836 101.571 257.82 101.08C258.217 100.982 258.47 101.093 258.793 101.261C260.616 102.218 262.233 103.495 264.002 104.538C265.628 105.496 267.15 106.611 268.782 107.569C270.643 108.662 272.361 110 274.215 111.11C276.244 112.324 278.244 113.598 280.207 114.904C281.497 115.763 282.828 116.606 284.125 117.446C286.211 118.8 288.338 120.116 290.414 121.485C291.951 122.496 293.673 123.247 295.036 124.541C295.483 124.962 296.104 125.216 296.671 125.492C298.114 126.192 298.485 127.758 298.26 128.564C297.813 130.18 296.675 131.074 295.001 131.134ZM255.557 104.719C255.532 105.771 255.817 106.275 256.435 106.643C257.982 107.559 259.51 108.507 261.038 109.458C263.663 111.094 266.29 112.726 268.899 114.384C270.763 115.567 272.599 116.79 274.456 117.985C275.499 118.657 276.621 119.193 277.655 119.89C279.398 121.07 281.221 122.128 283.003 123.247C283.757 123.72 284.499 124.214 285.25 124.693C286.974 125.79 288.696 126.896 290.436 127.974C290.747 128.167 291.083 128.281 291.33 127.742C291.85 126.62 292.427 125.524 293.508 124.798C293.986 124.474 293.711 124.205 293.352 124.027C291.875 123.298 290.55 122.325 289.178 121.425C287.459 120.299 285.672 119.282 283.973 118.128C281.154 116.213 278.257 114.419 275.401 112.568C273.499 111.335 271.597 110.079 269.628 108.938C267.673 107.803 265.843 106.447 263.942 105.22C262.189 104.088 260.397 103.017 258.651 101.876C258.039 101.476 257.545 101.679 257.079 102.021C256.051 102.766 255.639 103.85 255.557 104.719ZM295.077 130.551C296.37 130.491 297.134 129.873 297.47 128.614C297.756 127.54 297.375 126.643 296.316 125.986C295.777 125.653 295.207 125.375 294.665 125.045C294.392 124.88 294.164 124.921 293.986 125.137C293.454 125.79 292.712 126.237 292.36 127.083C291.733 128.586 291.638 128.64 292.915 129.499C293.559 129.933 294.173 130.586 295.077 130.551Z" fill="#1F1012"/>
</svg>
