<svg width="72" height="72" viewBox="0 0 72 72" fill="none" xmlns="http://www.w3.org/2000/svg">
    <g clip-path="url(#clip0)">
        <path d="M28.7476 11.8477V70.0324C28.7476 70.986 29.5243 71.7766 30.489 71.7766H41.7017C42.6538 71.7766 43.4431 70.9986 43.4431 70.0324V12.1237C38.532 12.0108 33.6335 11.8728 28.7476 11.8477Z" fill="#040C36"/>
        <path d="M28.7848 11.8471C29.098 24.144 29.1983 36.4285 29.1231 48.7254C29.0605 54.8739 28.9101 61.0224 28.8976 67.1583L28.8851 69.4671C28.8851 69.8561 28.8475 70.2326 28.9728 70.5588C29.0855 70.8976 29.3236 71.1862 29.6117 71.3744C30.2005 71.776 31.0149 71.5752 31.7791 71.6254L34.0843 71.6128L38.6821 71.5752L40.9873 71.5501C41.3756 71.5375 41.7765 71.5752 42.0647 71.4874C42.3779 71.3995 42.666 71.1987 42.854 70.9352C43.0544 70.6717 43.1421 70.3455 43.1421 70.0192L43.1296 68.8648L43.1045 66.556L43.0544 61.9509L42.9792 52.7282L42.9291 34.2953L43.0544 15.8624L43.0795 13.5536L43.092 12.5498C43.092 12.5247 43.1045 12.4745 43.092 12.4494H42.9918L42.5408 12.4243L37.9429 12.2611L28.7473 11.8973V11.8094L37.9554 11.7969L42.5658 11.8094H43.2549H43.7309C43.8061 11.8973 43.756 12.1106 43.7685 12.2486L43.781 13.5536L43.8061 15.8624L43.9314 34.2953L43.8813 52.7282L43.8061 61.9509L43.756 66.556L43.7309 68.8648L43.7184 70.0192C43.7184 70.4584 43.5681 70.9101 43.2924 71.2489C43.0293 71.6003 42.641 71.8512 42.215 71.9642C41.764 72.0771 41.3882 72.0018 41.0123 72.0144L38.7071 71.9893L34.1093 71.9516L31.8041 71.9391H30.6515C30.2632 71.9516 29.8122 71.8638 29.4739 71.6379C29.1231 71.4121 28.8475 71.0733 28.7097 70.6717C28.5593 70.2702 28.6095 69.8561 28.5969 69.4797L28.5844 67.1709C28.5719 61.0224 28.4215 54.8739 28.3589 48.738C28.2837 36.441 28.3839 24.1566 28.6971 11.8596H28.7848V11.8471Z" fill="#040C36"/>
        <path d="M56.4473 37.2139C60.1682 48.7454 54.1046 60.7287 42.4784 64.1041C30.3888 67.6175 16.9711 60.5279 12.9621 48.1306C8.95312 35.7332 16.1192 23.4739 28.497 20.8388C40.3988 18.3167 52.7139 25.6823 56.4473 37.2139Z" fill="#1B1880"/>
        <path d="M56.4846 37.2025C58.5142 42.7737 58.1008 49.2861 55.1441 54.5562C52.2752 59.864 46.9006 63.6911 41.0124 64.8581C35.1116 66.0878 28.8851 64.7703 23.7862 61.7462C18.6747 58.7096 14.6281 53.8912 12.7113 48.207C10.7694 42.5604 11.1453 36.0355 14.127 30.7403C17.021 25.4074 22.4206 21.5928 28.3339 20.3757C34.2472 19.0958 40.5864 20.3004 45.6979 23.4248C50.8345 26.5116 54.8184 31.5057 56.4846 37.2025L56.3969 37.2276C54.4426 31.6437 50.3834 26.9383 45.3221 24.0648C40.2732 21.1662 34.1971 20.0996 28.5469 21.3419C22.8967 22.5339 17.7601 26.1101 14.9163 31.1795C11.9972 36.2112 11.471 42.46 13.2124 48.0439C14.9413 53.6403 18.8626 58.5465 23.9616 61.4576C29.0229 64.4315 35.1993 65.3851 40.8495 64.0801C46.5248 62.8755 51.6363 59.2492 54.5177 54.1798C57.4493 49.1481 58.1008 42.8741 56.3969 37.215L56.4846 37.2025Z" fill="#040C36"/>
        <path d="M59.2287 35.2176C62.9496 46.7492 56.8859 58.7324 45.2598 62.1078C33.1702 65.6213 19.7525 58.5317 15.7435 46.1343C11.7345 33.737 18.9006 21.4777 31.2784 18.8426C43.1801 16.3079 55.5078 23.6861 59.2287 35.2176Z" fill="#B6A6F2"/>
        <path d="M59.2664 35.2086C61.2459 40.7924 60.8074 47.2797 57.8633 52.5122C54.9944 57.7948 49.6574 61.5969 43.7817 62.7638C37.906 63.9935 31.692 62.7387 26.6056 59.7147C21.4941 56.7032 17.4726 51.8597 15.5683 46.2005C13.6515 40.554 14.0524 34.0667 17.0215 28.8091C19.9155 23.5013 25.2776 19.7244 31.1533 18.5073C37.0415 17.2274 43.3432 18.4194 48.4421 21.5188C53.5661 24.5679 57.5501 29.5244 59.2664 35.2086L59.2038 35.2337C57.287 29.6373 53.2279 24.8942 48.1665 21.9956C43.1177 19.0719 37.0039 17.9803 31.3162 19.2351C25.6284 20.4271 20.4668 24.0409 17.6104 29.1354C14.6913 34.1922 14.1777 40.4787 15.9441 46.0751C17.6981 51.684 21.6319 56.5777 26.7434 59.5013C31.8048 62.4878 37.9937 63.479 43.6814 62.1866C49.3943 60.9946 54.5308 57.3306 57.3998 52.2361C60.3313 47.1793 60.9577 40.8677 59.2163 35.2211L59.2664 35.2086Z" fill="#040C36"/>
        <path d="M55.9204 35.4921C59.09 45.2921 53.9535 55.7068 43.9059 58.618C33.4825 61.6295 21.7937 55.4559 18.4111 44.9533C15.016 34.4632 21.255 24.1739 31.9165 21.8776C42.177 19.6566 52.7633 25.6922 55.9204 35.4921Z" fill="#040C36"/>
        <path d="M55.9459 35.4768C57.6121 40.2701 57.2112 45.7912 54.7056 50.2708C52.2626 54.788 47.74 58.0505 42.7287 59.0794C37.7174 60.1586 32.4055 59.1422 28.0081 56.6451C23.6107 54.1355 20.0152 50.1077 18.374 45.2516C16.6701 40.4583 17.0084 34.887 19.5892 30.4325C22.1074 25.9404 26.6927 22.7532 31.6914 21.6866C36.6901 20.5573 42.0772 21.4231 46.5122 23.9452C50.9597 26.4297 54.4676 30.6082 55.9459 35.4768L55.8958 35.4893C54.2796 30.6709 50.7342 26.643 46.3243 24.2589C41.9269 21.8372 36.6776 21.0467 31.7916 22.1634C26.9182 23.2175 22.4582 26.2917 19.965 30.6458C17.4218 34.9749 17.0084 40.3956 18.612 45.1638C20.153 49.9696 23.6859 54.0477 28.0833 56.4946C32.4681 58.979 37.755 59.8198 42.641 58.6904C47.5395 57.649 51.9369 54.4743 54.3799 50.0826C56.873 45.7284 57.3992 40.3077 55.8833 35.4768H55.9459Z" fill="#040C36"/>
        <path d="M55.4333 35.9855C58.5528 45.6223 53.4538 55.6356 43.7445 58.4212C33.6719 61.3198 22.5218 55.3971 19.1893 45.0828C15.8568 34.7684 21.7952 24.5669 32.0933 22.3459C42.0156 20.2002 52.3263 26.3362 55.4333 35.9855Z" fill="#786DE2"/>
        <path d="M55.4579 35.9734C57.0866 40.6412 56.7107 46.0243 54.2552 50.3784C51.8623 54.7577 47.4274 57.9197 42.5539 58.8985C37.6679 59.9274 32.4938 58.8985 28.2468 56.3889C23.9872 53.8793 20.6296 49.8514 19.0636 45.1209C17.4851 40.4154 17.8233 35.0323 20.2914 30.6531C22.6968 26.2488 27.1568 23.1243 32.0303 22.0954C36.9162 21.0288 42.153 22.0201 46.4126 24.5799C50.6847 27.1271 54.0172 31.2428 55.4579 35.9734L55.4078 35.986C53.8292 31.3056 50.4466 27.3404 46.2247 24.9061C42.0027 22.4468 36.9037 21.5433 32.143 22.5848C27.3948 23.5886 23.0726 26.6127 20.6798 30.879C18.2368 35.1202 17.8233 40.3777 19.3142 45.0456C20.7925 49.7259 24.0749 53.804 28.3345 56.2509C32.5564 58.7354 37.718 59.5886 42.4662 58.522C47.2394 57.5308 51.5366 54.4691 53.942 50.2028C56.385 45.9741 56.8861 40.6914 55.4203 35.9985L55.4579 35.9734Z" fill="#040C36"/>
        <path d="M48.0651 39.0962C46.9501 36.8124 44.7953 36.1976 42.3648 36.7748C43.58 35.269 44.1062 33.5374 43.2668 31.8184C41.776 28.7692 38.907 28.8821 35.988 30.0742L34.8855 27.8281L32.8184 28.8571L33.8958 31.0655L32.2295 31.8811L31.1521 29.6727L29.085 30.6891L30.1624 32.8975L25.6648 35.1059L26.7422 37.3144L28.872 36.3482C29.1601 36.2101 29.4859 36.3105 29.6112 36.5615L35.2989 48.1683C35.5495 48.6828 35.2739 49.009 34.8103 49.3102L32.9311 50.3266L33.9584 52.4221L38.6064 50.1383L39.9719 52.924L42.0391 51.9076L40.6735 49.122L42.3398 48.3063L43.7053 51.092L45.7725 50.0756L44.3818 47.2398C48.2656 44.9686 49.5685 42.1579 48.0651 39.0962ZM39.8216 33.939C40.4981 35.3192 39.9845 36.8501 37.4788 38.0923L35.324 39.1589L33.0188 34.466L35.3866 33.299C37.2659 32.3705 38.8945 32.0819 39.8216 33.939ZM41.8386 45.5332L39.095 46.8884L36.439 41.4677L39.333 40.0498C41.6382 38.9205 43.4422 39.184 44.2942 40.9282C45.0584 42.5092 44.7076 44.1279 41.8386 45.5332Z" fill="white"/>
        <path d="M35.6008 0.254096C35.9265 -0.0846985 36.4777 -0.0846985 36.8035 0.254096L43.5186 7.21819L49.4694 13.3792C49.9831 13.9062 49.6072 14.7971 48.8681 14.7971H36.2021H23.5236C22.7845 14.7971 22.4086 13.9062 22.9223 13.3792L28.8732 7.21819L35.6008 0.254096Z" fill="#040C36"/>
    </g>
    <defs>
        <clipPath id="clip0">
            <rect width="72" height="72" fill="white"/>
        </clipPath>
    </defs>
</svg>
